<?xml version="1.0" encoding="UTF-8" standalone="no"?>
<!DOCTYPE svg PUBLIC "-//W3C//DTD SVG 1.0//EN"
 "http://www.w3.org/TR/2001/REC-SVG-20010904/DTD/svg10.dtd">
<!-- Generated by dot version 1.16 (Wed Jun 11 17:45:06 UTC 2008)
     For user: (hubbard) Paul Hubbard   Title: p4    Pages: 1 -->
<svg width="572pt" height="248pt"
 viewBox = "-1 -1 571 247"
 xmlns="http://www.w3.org/2000/svg">
<g id="graph0" class="graph" style="font-family:Times-Roman;font-size:14.00;">
<title>p4</title>
<g id="node1" class="node"><title>port5700</title>
<ellipse cx="37" cy="54" rx="32" ry="32" style="fill:none;stroke:black;"/>
<text text-anchor="middle" style="font-family:/System/Library/Fonts/Times.dfont;" x="37" y="59">5700</text>
</g>
<g id="node4" class="node"><title>udpcapture1</title>
<ellipse cx="204" cy="54" rx="49" ry="18" style="fill:none;stroke:black;"/>
<text text-anchor="middle" style="font-family:/System/Library/Fonts/Times.dfont;" x="204" y="59">UDPCapture</text>
</g>
<g id="edge2" class="edge"><title>port5700&#45;&gt;udpcapture1</title>
<path style="fill:none;stroke:black;" d="M69,54C90,54 119,54 144,54"/>
<polygon style="fill:black;stroke:black;" points="144,50 154,54 144,57 144,50"/>
</g>
<g id="node2" class="node"><title>httpmon1</title>
<polygon style="fill:none;stroke:black;" points="278,76 130,76 130,116 278,116 278,76"/>
<text text-anchor="middle" style="font-family:/System/Library/Fonts/Times.dfont;" x="204" y="93">HttpMonitor</text>
<text text-anchor="middle" style="font-family:/System/Library/Fonts/Times.dfont;" x="204" y="109">(HttpMon_MSFC.xml)</text>
</g>
<g id="node7" class="node"><title>RBNB</title>
<ellipse cx="372" cy="122" rx="32" ry="18" style="fill:none;stroke:black;"/>
<text text-anchor="middle" style="font-family:/System/Library/Fonts/Times.dfont;" x="372" y="127">RBNB</text>
</g>
<g id="edge5" class="edge"><title>httpmon1&#45;&gt;RBNB</title>
<path style="fill:none;stroke:black;" d="M278,107C296,109 315,113 331,115"/>
<polygon style="fill:black;stroke:black;" points="332,112 341,117 331,118 332,112"/>
</g>
<g id="node3" class="node"><title>port4000</title>
<polygon style="fill:none;stroke:black;" points="399,4 345,4 345,40 399,40 399,4"/>
<text text-anchor="middle" style="font-family:/System/Library/Fonts/Times.dfont;" x="372" y="27">4000</text>
</g>
<g id="node10" class="node"><title>TimeDrive</title>
<ellipse cx="503" cy="22" rx="44" ry="18" style="fill:none;stroke:black;"/>
<text text-anchor="middle" style="font-family:/System/Library/Fonts/Times.dfont;" x="503" y="27">TimeDrive</text>
</g>
<g id="edge7" class="edge"><title>port4000&#45;&gt;TimeDrive</title>
<path style="fill:none;stroke:black;" d="M399,22C413,22 432,22 449,22"/>
<polygon style="fill:black;stroke:black;" points="449,18 459,22 449,25 449,18"/>
</g>
<g id="edge3" class="edge"><title>udpcapture1&#45;&gt;RBNB</title>
<path style="fill:none;stroke:black;" d="M251,59C268,62 287,67 303,74 318,81 335,91 347,101"/>
<polygon style="fill:black;stroke:black;" points="349,98 355,107 345,104 349,98"/>
</g>
<g id="node5" class="node"><title>xmldemux1</title>
<ellipse cx="204" cy="148" rx="98" ry="28" style="fill:none;stroke:black;"/>
<text text-anchor="middle" style="font-family:/System/Library/Fonts/Times.dfont;" x="204" y="145">XMLDemux</text>
<text text-anchor="middle" style="font-family:/System/Library/Fonts/Times.dfont;" x="204" y="161">(IWG1_GTR_out_DC8.xml)</text>
</g>
<g id="edge16" class="edge"><title>xmldemux1&#45;&gt;RBNB</title>
<path style="fill:none;stroke:black;" d="M301,133C311,132 322,130 331,129"/>
<polygon style="fill:black;stroke:black;" points="301,136 291,135 300,130 301,136"/>
<polygon style="fill:black;stroke:black;" points="331,126 341,127 332,132 331,126"/>
</g>
<g id="edge10" class="edge"><title>RBNB&#45;&gt;TimeDrive</title>
<path style="fill:none;stroke:black;" d="M389,97C401,78 420,56 441,42 445,39 450,37 455,34"/>
<polygon style="fill:black;stroke:black;" points="392,99 383,105 386,95 392,99"/>
<polygon style="fill:black;stroke:black;" points="454,31 465,31 456,37 454,31"/>
</g>
<g id="node13" class="node"><title>Tomcat</title>
<ellipse cx="503" cy="62" rx="34" ry="18" style="fill:none;stroke:black;"/>
<text text-anchor="middle" style="font-family:/System/Library/Fonts/Times.dfont;" x="503" y="67">Tomcat</text>
</g>
<g id="edge11" class="edge"><title>RBNB&#45;&gt;Tomcat</title>
<path style="fill:none;stroke:black;" d="M402,103C414,96 428,88 441,82 448,79 455,77 462,74"/>
<polygon style="fill:black;stroke:black;" points="403,106 393,108 400,100 403,106"/>
<polygon style="fill:black;stroke:black;" points="461,70 472,70 464,77 461,70"/>
</g>
<g id="node14" class="node"><title>PNG</title>
<ellipse cx="503" cy="102" rx="27" ry="18" style="fill:none;stroke:black;"/>
<text text-anchor="middle" style="font-family:/System/Library/Fonts/Times.dfont;" x="503" y="107">PNG</text>
</g>
<g id="edge12" class="edge"><title>RBNB&#45;&gt;PNG</title>
<path style="fill:none;stroke:black;" d="M413,116C429,114 449,110 466,108"/>
<polygon style="fill:black;stroke:black;" points="413,119 403,117 413,113 413,119"/>
<polygon style="fill:black;stroke:black;" points="466,105 476,106 467,111 466,105"/>
</g>
<g id="node15" class="node"><title>TrackKML_DC8</title>
<ellipse cx="503" cy="142" rx="62" ry="18" style="fill:none;stroke:black;"/>
<text text-anchor="middle" style="font-family:/System/Library/Fonts/Times.dfont;" x="503" y="147">TrackKML_DC8</text>
</g>
<g id="edge13" class="edge"><title>RBNB&#45;&gt;TrackKML_DC8</title>
<path style="fill:none;stroke:black;" d="M413,128C421,129 429,131 438,132"/>
<polygon style="fill:black;stroke:black;" points="413,131 403,127 413,125 413,131"/>
<polygon style="fill:black;stroke:black;" points="439,129 448,134 438,135 439,129"/>
</g>
<g id="node16" class="node"><title>TrackData_DC8</title>
<ellipse cx="503" cy="182" rx="59" ry="18" style="fill:none;stroke:black;"/>
<text text-anchor="middle" style="font-family:/System/Library/Fonts/Times.dfont;" x="503" y="187">TrackData_DC8</text>
</g>
<g id="edge14" class="edge"><title>RBNB&#45;&gt;TrackData_DC8</title>
<path style="fill:none;stroke:black;" d="M402,141C414,148 427,156 441,162 444,164 448,165 451,166"/>
<polygon style="fill:black;stroke:black;" points="400,144 393,136 403,138 400,144"/>
<polygon style="fill:black;stroke:black;" points="452,163 461,169 450,169 452,163"/>
</g>
<g id="node21" class="node"><title>RDV1</title>
<ellipse cx="503" cy="222" rx="31" ry="18" style="fill:none;stroke:black;"/>
<text text-anchor="middle" style="font-family:/System/Library/Fonts/Times.dfont;" x="503" y="227">RDV1</text>
</g>
<g id="edge20" class="edge"><title>RBNB&#45;&gt;RDV1</title>
<path style="fill:none;stroke:black;" d="M383,139C395,157 416,185 441,202 448,206 456,210 463,213"/>
<polygon style="fill:black;stroke:black;" points="464,210 473,216 462,216 464,210"/>
</g>
<g id="node18" class="node"><title>csndemux1</title>
<ellipse cx="204" cy="198" rx="45" ry="18" style="fill:none;stroke:black;"/>
<text text-anchor="middle" style="font-family:/System/Library/Fonts/Times.dfont;" x="204" y="203">csndemux1</text>
</g>
<g id="edge18" class="edge"><title>csndemux1&#45;&gt;RBNB</title>
<path style="fill:none;stroke:black;" d="M258,192C273,189 289,185 303,178 320,170 337,157 350,145"/>
<polygon style="fill:black;stroke:black;" points="258,195 248,194 257,189 258,195"/>
<polygon style="fill:black;stroke:black;" points="347,143 357,138 352,148 347,143"/>
</g>
</g>
</svg>
