<?xml version="1.0" encoding="UTF-8" standalone="no"?>
<!DOCTYPE svg PUBLIC "-//W3C//DTD SVG 1.1//EN"
 "http://www.w3.org/Graphics/SVG/1.1/DTD/svg11.dtd">
<!-- Generated by graphviz version 2.26.3 (20100126.1600)
 -->
<!-- Title: INDS Pages: 1 -->
<svg width="576pt" height="655pt"
 viewBox="0.00 0.00 576.00 654.64" xmlns="http://www.w3.org/2000/svg" xmlns:xlink="http://www.w3.org/1999/xlink">
<g id="graph1" class="graph" transform="scale(0.531365 0.531365) rotate(0) translate(4 1228)">
<title>INDS</title>
<polygon fill="white" stroke="white" points="-4,5 -4,-1228 1081,-1228 1081,5 -4,5"/>
<!-- TimeDrive_19port4000 -->
<g id="node1" class="node"><title>TimeDrive_19port4000</title>
<polygon fill="none" stroke="black" points="54,-873 1.42109e-014,-873 0,-837 54,-837 54,-873"/>
<text text-anchor="middle" x="27" y="-850.4" font-family="Times New Roman,serif" font-size="14.00">4000</text>
</g>
<!-- TimeDrive_19 -->
<g id="node2" class="node"><title>TimeDrive_19</title>
<a target="_top" xlink:href="../indsViewer/index.jsp?command=TimeDrive_19" xlink:title="TimeDrive (tcp:4000)">
<ellipse fill="none" stroke="red" cx="214" cy="-855" rx="91.2316" ry="18"/>
<text text-anchor="middle" x="214" y="-850.4" font-family="Times New Roman,serif" font-size="14.00">TimeDrive (tcp:4000)</text>
</a>
</g>
<!-- TimeDrive_19port4000&#45;&gt;TimeDrive_19 -->
<g id="edge2" class="edge"><title>TimeDrive_19port4000&#45;&gt;TimeDrive_19</title>
<path fill="none" stroke="red" d="M64.2296,-855C78.4416,-855 95.4154,-855 112.747,-855"/>
<polygon fill="red" stroke="red" points="64.1914,-851.5 54.1914,-855 64.1914,-858.5 64.1914,-851.5"/>
<polygon fill="red" stroke="red" points="112.975,-858.5 122.975,-855 112.975,-851.5 112.975,-858.5"/>
</g>
<!-- DataTurbine_2 -->
<g id="node5" class="node"><title>DataTurbine_2</title>
<a target="_top" xlink:href="../indsViewer/index.jsp?command=DataTurbine_2" xlink:title="P3B DataTurbine">
<ellipse fill="none" stroke="red" cx="450" cy="-612" rx="75.8027" ry="18"/>
<text text-anchor="middle" x="450" y="-607.4" font-family="Times New Roman,serif" font-size="14.00">P3B DataTurbine</text>
</a>
</g>
<!-- TimeDrive_19&#45;&gt;DataTurbine_2 -->
<g id="edge4" class="edge"><title>TimeDrive_19&#45;&gt;DataTurbine_2</title>
<path fill="none" stroke="red" d="M306.438,-844.499C317.772,-840.518 328.638,-835.168 338,-828 400.831,-779.895 431.681,-686.529 443.71,-639.903"/>
<polygon fill="red" stroke="red" points="305.315,-841.183 296.832,-847.53 307.422,-847.859 305.315,-841.183"/>
<polygon fill="red" stroke="red" points="447.115,-640.714 446.122,-630.165 440.32,-639.03 447.115,-640.714"/>
</g>
<!-- TrackKmlPlugIn_5 -->
<g id="node30" class="node"><title>TrackKmlPlugIn_5</title>
<a target="_top" xlink:href="../indsViewer/index.jsp?command=TrackKmlPlugIn_5" xlink:title="TrackKmlPlugIn (TrackKML_DC8)">
<ellipse fill="none" stroke="blue" cx="819" cy="-1206" rx="146.239" ry="18"/>
<text text-anchor="middle" x="819" y="-1201.4" font-family="Times New Roman,serif" font-size="14.00">TrackKmlPlugIn (TrackKML_DC8)</text>
</a>
</g>
<!-- DataTurbine_2&#45;&gt;TrackKmlPlugIn_5 -->
<g id="edge30" class="edge"><title>DataTurbine_2&#45;&gt;TrackKmlPlugIn_5</title>
<path fill="none" stroke="blue" d="M451.294,-640.152C456.694,-744.231 481.059,-1105.06 562,-1179 604.943,-1218.23 670.303,-1224.65 724.361,-1221.43"/>
<polygon fill="blue" stroke="blue" points="454.786,-639.903 450.791,-630.091 447.795,-640.253 454.786,-639.903"/>
<polygon fill="blue" stroke="blue" points="724.938,-1224.9 734.663,-1220.69 724.439,-1217.92 724.938,-1224.9"/>
</g>
<!-- TrackKmlPlugIn_6 -->
<g id="node32" class="node"><title>TrackKmlPlugIn_6</title>
<a target="_top" xlink:href="../indsViewer/index.jsp?command=TrackKmlPlugIn_6" xlink:title="TrackKmlPlugIn (TrackKML_P3B)">
<ellipse fill="none" stroke="blue" cx="819" cy="-1152" rx="144.897" ry="18"/>
<text text-anchor="middle" x="819" y="-1147.4" font-family="Times New Roman,serif" font-size="14.00">TrackKmlPlugIn (TrackKML_P3B)</text>
</a>
</g>
<!-- DataTurbine_2&#45;&gt;TrackKmlPlugIn_6 -->
<g id="edge32" class="edge"><title>DataTurbine_2&#45;&gt;TrackKmlPlugIn_6</title>
<path fill="none" stroke="blue" d="M451.913,-639.995C459.174,-737.398 488.439,-1059.13 562,-1125 604.861,-1163.38 669.268,-1170.08 722.882,-1167.21"/>
<polygon fill="blue" stroke="blue" points="455.403,-639.732 451.188,-630.012 448.421,-640.239 455.403,-639.732"/>
<polygon fill="blue" stroke="blue" points="723.354,-1170.69 733.105,-1166.55 722.898,-1163.71 723.354,-1170.69"/>
</g>
<!-- TrackKmlPlugIn_7 -->
<g id="node34" class="node"><title>TrackKmlPlugIn_7</title>
<a target="_top" xlink:href="../indsViewer/index.jsp?command=TrackKmlPlugIn_7" xlink:title="TrackKmlPlugIn (TrackKML_B200)">
<ellipse fill="none" stroke="blue" cx="819" cy="-1098" rx="147.752" ry="18"/>
<text text-anchor="middle" x="819" y="-1093.4" font-family="Times New Roman,serif" font-size="14.00">TrackKmlPlugIn (TrackKML_B200)</text>
</a>
</g>
<!-- DataTurbine_2&#45;&gt;TrackKmlPlugIn_7 -->
<g id="edge34" class="edge"><title>DataTurbine_2&#45;&gt;TrackKmlPlugIn_7</title>
<path fill="none" stroke="blue" d="M452.711,-640.285C462.032,-731.178 495.889,-1013.24 562,-1071 604.452,-1108.09 667.146,-1115.27 719.983,-1112.98"/>
<polygon fill="blue" stroke="blue" points="456.178,-639.776 451.696,-630.176 449.213,-640.476 456.178,-639.776"/>
<polygon fill="blue" stroke="blue" points="720.276,-1116.46 730.068,-1112.42 719.89,-1109.48 720.276,-1116.46"/>
</g>
<!-- TrackKmlPlugIn_8 -->
<g id="node36" class="node"><title>TrackKmlPlugIn_8</title>
<a target="_top" xlink:href="../indsViewer/index.jsp?command=TrackKmlPlugIn_8" xlink:title="TrackKmlPlugIn (TrackKML_NOAAP3)">
<ellipse fill="none" stroke="blue" cx="819" cy="-1044" rx="165.192" ry="18"/>
<text text-anchor="middle" x="819" y="-1039.4" font-family="Times New Roman,serif" font-size="14.00">TrackKmlPlugIn (TrackKML_NOAAP3)</text>
</a>
</g>
<!-- DataTurbine_2&#45;&gt;TrackKmlPlugIn_8 -->
<g id="edge36" class="edge"><title>DataTurbine_2&#45;&gt;TrackKmlPlugIn_8</title>
<path fill="none" stroke="blue" d="M453.682,-640.245C465.182,-723.825 503.209,-967.195 562,-1017 602.192,-1051.05 659.576,-1059.54 709.928,-1058.76"/>
<polygon fill="blue" stroke="blue" points="457.133,-639.645 452.324,-630.205 450.197,-640.584 457.133,-639.645"/>
<polygon fill="blue" stroke="blue" points="710.329,-1062.25 720.227,-1058.48 710.133,-1055.26 710.329,-1062.25"/>
</g>
<!-- TrackKmlPlugIn_9 -->
<g id="node38" class="node"><title>TrackKmlPlugIn_9</title>
<a target="_top" xlink:href="../indsViewer/index.jsp?command=TrackKmlPlugIn_9" xlink:title="TrackKmlPlugIn (TrackKML_CV580)">
<ellipse fill="none" stroke="blue" cx="819" cy="-990" rx="155.13" ry="18"/>
<text text-anchor="middle" x="819" y="-985.4" font-family="Times New Roman,serif" font-size="14.00">TrackKmlPlugIn (TrackKML_CV580)</text>
</a>
</g>
<!-- DataTurbine_2&#45;&gt;TrackKmlPlugIn_9 -->
<g id="edge38" class="edge"><title>DataTurbine_2&#45;&gt;TrackKmlPlugIn_9</title>
<path fill="none" stroke="blue" d="M454.939,-640.201C468.805,-715.967 510.466,-921.045 562,-963 602.524,-995.991 659.374,-1004.55 709.305,-1004.08"/>
<polygon fill="blue" stroke="blue" points="458.317,-639.215 453.097,-629.996 451.429,-640.458 458.317,-639.215"/>
<polygon fill="blue" stroke="blue" points="709.596,-1007.58 719.518,-1003.86 709.445,-1000.58 709.596,-1007.58"/>
</g>
<!-- TrackKmlPlugIn_10 -->
<g id="node40" class="node"><title>TrackKmlPlugIn_10</title>
<a target="_top" xlink:href="../indsViewer/index.jsp?command=TrackKmlPlugIn_10" xlink:title="TrackKmlPlugIn (TrackKML_TwinOtter)">
<ellipse fill="none" stroke="blue" cx="819" cy="-936" rx="167.034" ry="18"/>
<text text-anchor="middle" x="819" y="-931.4" font-family="Times New Roman,serif" font-size="14.00">TrackKmlPlugIn (TrackKML_TwinOtter)</text>
</a>
</g>
<!-- DataTurbine_2&#45;&gt;TrackKmlPlugIn_10 -->
<g id="edge40" class="edge"><title>DataTurbine_2&#45;&gt;TrackKmlPlugIn_10</title>
<path fill="none" stroke="blue" d="M451.331,-640.408C455.832,-700.883 475.558,-842.268 562,-909 599.138,-937.67 648.821,-947.422 694.602,-948.928"/>
<polygon fill="blue" stroke="blue" points="454.801,-639.843 450.655,-630.093 447.816,-640.301 454.801,-639.843"/>
<polygon fill="blue" stroke="blue" points="694.541,-952.427 704.61,-949.131 694.683,-945.429 694.541,-952.427"/>
</g>
<!-- TrackDataPlugIn_11 -->
<g id="node42" class="node"><title>TrackDataPlugIn_11</title>
<a target="_top" xlink:href="../indsViewer/index.jsp?command=TrackDataPlugIn_11" xlink:title="TrackDataPlugIn (TrackData_DC8)">
<ellipse fill="none" stroke="blue" cx="819" cy="-882" rx="144.897" ry="18"/>
<text text-anchor="middle" x="819" y="-877.4" font-family="Times New Roman,serif" font-size="14.00">TrackDataPlugIn (TrackData_DC8)</text>
</a>
</g>
<!-- DataTurbine_2&#45;&gt;TrackDataPlugIn_11 -->
<g id="edge42" class="edge"><title>DataTurbine_2&#45;&gt;TrackDataPlugIn_11</title>
<path fill="none" stroke="blue" d="M453.927,-640.347C462.793,-692.505 489.559,-803.087 562,-855 601.155,-883.059 652.675,-892.331 699.3,-893.639"/>
<polygon fill="blue" stroke="blue" points="457.331,-639.468 452.297,-630.146 450.419,-640.573 457.331,-639.468"/>
<polygon fill="blue" stroke="blue" points="699.422,-897.141 709.477,-893.802 699.535,-890.142 699.422,-897.141"/>
</g>
<!-- TrackDataPlugIn_12 -->
<g id="node44" class="node"><title>TrackDataPlugIn_12</title>
<a target="_top" xlink:href="../indsViewer/index.jsp?command=TrackDataPlugIn_12" xlink:title="TrackDataPlugIn (TrackData_P3B)">
<ellipse fill="none" stroke="blue" cx="819" cy="-828" rx="143.055" ry="18"/>
<text text-anchor="middle" x="819" y="-823.4" font-family="Times New Roman,serif" font-size="14.00">TrackDataPlugIn (TrackData_P3B)</text>
</a>
</g>
<!-- DataTurbine_2&#45;&gt;TrackDataPlugIn_12 -->
<g id="edge44" class="edge"><title>DataTurbine_2&#45;&gt;TrackDataPlugIn_12</title>
<path fill="none" stroke="blue" d="M457.712,-639.882C471.127,-682.597 503.125,-763.241 562,-801 598.36,-824.319 643.723,-833.917 686.174,-836.816"/>
<polygon fill="blue" stroke="blue" points="461.009,-638.696 454.767,-630.136 454.309,-640.721 461.009,-638.696"/>
<polygon fill="blue" stroke="blue" points="686.14,-840.319 696.321,-837.387 686.534,-833.33 686.14,-840.319"/>
</g>
<!-- TrackDataPlugIn_13 -->
<g id="node46" class="node"><title>TrackDataPlugIn_13</title>
<a target="_top" xlink:href="../indsViewer/index.jsp?command=TrackDataPlugIn_13" xlink:title="TrackDataPlugIn (TrackData_B200)">
<ellipse fill="none" stroke="blue" cx="819" cy="-774" rx="146.91" ry="18"/>
<text text-anchor="middle" x="819" y="-769.4" font-family="Times New Roman,serif" font-size="14.00">TrackDataPlugIn (TrackData_B200)</text>
</a>
</g>
<!-- DataTurbine_2&#45;&gt;TrackDataPlugIn_13 -->
<g id="edge46" class="edge"><title>DataTurbine_2&#45;&gt;TrackDataPlugIn_13</title>
<path fill="none" stroke="blue" d="M463.911,-639.086C481.863,-670.932 516.303,-722.54 562,-747 593.545,-763.885 630.378,-772.87 666.142,-777.238"/>
<polygon fill="blue" stroke="blue" points="466.958,-637.364 459.081,-630.278 460.82,-640.729 466.958,-637.364"/>
<polygon fill="blue" stroke="blue" points="665.872,-780.73 676.196,-778.351 666.641,-773.772 665.872,-780.73"/>
</g>
<!-- TrackDataPlugIn_14 -->
<g id="node48" class="node"><title>TrackDataPlugIn_14</title>
<a target="_top" xlink:href="../indsViewer/index.jsp?command=TrackDataPlugIn_14" xlink:title="TrackDataPlugIn (TrackData_NOAAP3)">
<ellipse fill="none" stroke="blue" cx="819" cy="-720" rx="163.851" ry="18"/>
<text text-anchor="middle" x="819" y="-715.4" font-family="Times New Roman,serif" font-size="14.00">TrackDataPlugIn (TrackData_NOAAP3)</text>
</a>
</g>
<!-- DataTurbine_2&#45;&gt;TrackDataPlugIn_14 -->
<g id="edge48" class="edge"><title>DataTurbine_2&#45;&gt;TrackDataPlugIn_14</title>
<path fill="none" stroke="blue" d="M475.62,-636.618C496.93,-655.492 529.01,-680.378 562,-693 589.105,-703.37 618.922,-710.223 648.348,-714.675"/>
<polygon fill="blue" stroke="blue" points="477.761,-633.836 468,-629.717 473.062,-639.024 477.761,-633.836"/>
<polygon fill="blue" stroke="blue" points="647.915,-718.148 658.309,-716.094 648.902,-711.218 647.915,-718.148"/>
</g>
<!-- TrackDataPlugIn_15 -->
<g id="node50" class="node"><title>TrackDataPlugIn_15</title>
<a target="_top" xlink:href="../indsViewer/index.jsp?command=TrackDataPlugIn_15" xlink:title="TrackDataPlugIn (TrackData_CV580)">
<ellipse fill="none" stroke="blue" cx="819" cy="-666" rx="153.789" ry="18"/>
<text text-anchor="middle" x="819" y="-661.4" font-family="Times New Roman,serif" font-size="14.00">TrackDataPlugIn (TrackData_CV580)</text>
</a>
</g>
<!-- DataTurbine_2&#45;&gt;TrackDataPlugIn_15 -->
<g id="edge50" class="edge"><title>DataTurbine_2&#45;&gt;TrackDataPlugIn_15</title>
<path fill="none" stroke="blue" d="M510.316,-628.083C526.969,-632.101 545.105,-636.089 562,-639 600.252,-645.59 642.002,-650.81 680.518,-654.833"/>
<polygon fill="blue" stroke="blue" points="510.71,-624.576 500.163,-625.587 509.038,-631.373 510.71,-624.576"/>
<polygon fill="blue" stroke="blue" points="680.456,-658.345 690.761,-655.883 681.17,-651.381 680.456,-658.345"/>
</g>
<!-- TrackDataPlugIn_16 -->
<g id="node52" class="node"><title>TrackDataPlugIn_16</title>
<a target="_top" xlink:href="../indsViewer/index.jsp?command=TrackDataPlugIn_16" xlink:title="TrackDataPlugIn (TrackData_TwinOtter)">
<ellipse fill="none" stroke="blue" cx="819" cy="-612" rx="165.192" ry="18"/>
<text text-anchor="middle" x="819" y="-607.4" font-family="Times New Roman,serif" font-size="14.00">TrackDataPlugIn (TrackData_TwinOtter)</text>
</a>
</g>
<!-- DataTurbine_2&#45;&gt;TrackDataPlugIn_16 -->
<g id="edge52" class="edge"><title>DataTurbine_2&#45;&gt;TrackDataPlugIn_16</title>
<path fill="none" stroke="blue" d="M536.171,-612C568.161,-612 605.722,-612 642.833,-612"/>
<polygon fill="blue" stroke="blue" points="536.01,-608.5 526.01,-612 536.01,-615.5 536.01,-608.5"/>
<polygon fill="blue" stroke="blue" points="643.283,-615.5 653.283,-612 643.283,-608.5 643.283,-615.5"/>
</g>
<!-- PngPlugIn_22 -->
<g id="node54" class="node"><title>PngPlugIn_22</title>
<a target="_top" xlink:href="../indsViewer/index.jsp?command=PngPlugIn_22" xlink:title="PngPlugIn (PNGPlugIn)">
<ellipse fill="none" stroke="blue" cx="819" cy="-558" rx="101.965" ry="18"/>
<text text-anchor="middle" x="819" y="-553.4" font-family="Times New Roman,serif" font-size="14.00">PngPlugIn (PNGPlugIn)</text>
</a>
</g>
<!-- DataTurbine_2&#45;&gt;PngPlugIn_22 -->
<g id="edge54" class="edge"><title>DataTurbine_2&#45;&gt;PngPlugIn_22</title>
<path fill="none" stroke="blue" d="M510.316,-595.917C526.969,-591.899 545.105,-587.911 562,-585 611.84,-576.413 667.619,-570.153 714.444,-565.836"/>
<polygon fill="blue" stroke="blue" points="509.038,-592.627 500.163,-598.413 510.71,-599.424 509.038,-592.627"/>
<polygon fill="blue" stroke="blue" points="714.957,-569.304 724.6,-564.917 714.326,-562.332 714.957,-569.304"/>
</g>
<!-- ToStringPlugIn_24 -->
<g id="node56" class="node"><title>ToStringPlugIn_24</title>
<a target="_top" xlink:href="../indsViewer/index.jsp?command=ToStringPlugIn_24" xlink:title="ToStringPlugIn (ToString)">
<ellipse fill="none" stroke="blue" cx="819" cy="-504" rx="110.015" ry="18"/>
<text text-anchor="middle" x="819" y="-499.4" font-family="Times New Roman,serif" font-size="14.00">ToStringPlugIn (ToString)</text>
</a>
</g>
<!-- DataTurbine_2&#45;&gt;ToStringPlugIn_24 -->
<g id="edge56" class="edge"><title>DataTurbine_2&#45;&gt;ToStringPlugIn_24</title>
<path fill="none" stroke="blue" d="M475.62,-587.382C496.93,-568.508 529.01,-543.622 562,-531 604.858,-514.603 654.495,-506.999 698.652,-503.778"/>
<polygon fill="blue" stroke="blue" points="473.062,-584.976 468,-594.283 477.761,-590.164 473.062,-584.976"/>
<polygon fill="blue" stroke="blue" points="699.118,-507.255 708.865,-503.103 698.656,-500.27 699.118,-507.255"/>
</g>
<!-- ThumbNailPlugIn_26 -->
<g id="node58" class="node"><title>ThumbNailPlugIn_26</title>
<a target="_top" xlink:href="../indsViewer/index.jsp?command=ThumbNailPlugIn_26" xlink:title="ThumbNailPlugIn (ThumbNail)">
<ellipse fill="none" stroke="blue" cx="819" cy="-450" rx="126.956" ry="18"/>
<text text-anchor="middle" x="819" y="-445.4" font-family="Times New Roman,serif" font-size="14.00">ThumbNailPlugIn (ThumbNail)</text>
</a>
</g>
<!-- DataTurbine_2&#45;&gt;ThumbNailPlugIn_26 -->
<g id="edge58" class="edge"><title>DataTurbine_2&#45;&gt;ThumbNailPlugIn_26</title>
<path fill="none" stroke="blue" d="M463.911,-584.914C481.863,-553.068 516.303,-501.46 562,-477 600.266,-456.518 646.313,-447.66 688.795,-444.566"/>
<polygon fill="blue" stroke="blue" points="460.82,-583.271 459.081,-593.722 466.958,-586.636 460.82,-583.271"/>
<polygon fill="blue" stroke="blue" points="689.177,-448.049 698.938,-443.93 688.739,-441.063 689.177,-448.049"/>
</g>
<!-- DeadReckoningPlugIn_47 -->
<g id="node60" class="node"><title>DeadReckoningPlugIn_47</title>
<a target="_top" xlink:href="../indsViewer/index.jsp?command=DeadReckoningPlugIn_47" xlink:title="DeadReckoningPlugIn">
<ellipse fill="none" stroke="blue" cx="819" cy="-396" rx="94.7578" ry="18"/>
<text text-anchor="middle" x="819" y="-391.4" font-family="Times New Roman,serif" font-size="14.00">DeadReckoningPlugIn</text>
</a>
</g>
<!-- DataTurbine_2&#45;&gt;DeadReckoningPlugIn_47 -->
<g id="edge60" class="edge"><title>DataTurbine_2&#45;&gt;DeadReckoningPlugIn_47</title>
<path fill="none" stroke="blue" d="M457.712,-584.118C471.127,-541.403 503.125,-460.759 562,-423 610.504,-391.893 675.028,-385.203 727.288,-386.26"/>
<polygon fill="blue" stroke="blue" points="454.309,-583.279 454.767,-593.864 461.009,-585.304 454.309,-583.279"/>
<polygon fill="blue" stroke="blue" points="727.468,-389.767 737.569,-386.569 727.679,-382.77 727.468,-389.767"/>
</g>
<!-- XmlDemux_29 -->
<g id="node62" class="node"><title>XmlDemux_29</title>
<a target="_top" xlink:href="../indsViewer/index.jsp?command=XmlDemux_29" xlink:title="XmlDemux (DC8&#45;817&#45;TC4_IWG1)">
<ellipse fill="none" stroke="brown" cx="819" cy="-342" rx="144.897" ry="18"/>
<text text-anchor="middle" x="819" y="-337.4" font-family="Times New Roman,serif" font-size="14.00">XmlDemux (DC8&#45;817&#45;TC4_IWG1)</text>
</a>
</g>
<!-- DataTurbine_2&#45;&gt;XmlDemux_29 -->
<g id="edge62" class="edge"><title>DataTurbine_2&#45;&gt;XmlDemux_29</title>
<path fill="none" stroke="brown" d="M453.927,-583.653C462.793,-531.495 489.559,-420.913 562,-369 601.155,-340.941 652.675,-331.669 699.3,-330.361"/>
<polygon fill="brown" stroke="brown" points="450.419,-583.427 452.297,-593.854 457.331,-584.532 450.419,-583.427"/>
<polygon fill="brown" stroke="brown" points="699.535,-333.858 709.477,-330.198 699.422,-326.859 699.535,-333.858"/>
</g>
<!-- XmlDemux_32 -->
<g id="node64" class="node"><title>XmlDemux_32</title>
<a target="_top" xlink:href="../indsViewer/index.jsp?command=XmlDemux_32" xlink:title="XmlDemux (GTR_P3orion_IWG1)">
<ellipse fill="none" stroke="brown" cx="819" cy="-288" rx="144.897" ry="18"/>
<text text-anchor="middle" x="819" y="-283.4" font-family="Times New Roman,serif" font-size="14.00">XmlDemux (GTR_P3orion_IWG1)</text>
</a>
</g>
<!-- DataTurbine_2&#45;&gt;XmlDemux_32 -->
<g id="edge64" class="edge"><title>DataTurbine_2&#45;&gt;XmlDemux_32</title>
<path fill="none" stroke="brown" d="M451.331,-583.592C455.832,-523.117 475.558,-381.732 562,-315 602.948,-283.388 659.147,-274.776 708.552,-274.857"/>
<polygon fill="brown" stroke="brown" points="447.816,-583.699 450.655,-593.907 454.801,-584.157 447.816,-583.699"/>
<polygon fill="brown" stroke="brown" points="708.613,-278.358 718.659,-274.993 708.707,-271.359 708.613,-278.358"/>
</g>
<!-- XmlDemux_34 -->
<g id="node66" class="node"><title>XmlDemux_34</title>
<a target="_top" xlink:href="../indsViewer/index.jsp?command=XmlDemux_34" xlink:title="XmlDemux (GTR_MONITOR_TM_STREAM_P3B_ARCTAS)">
<ellipse fill="none" stroke="brown" cx="819" cy="-234" rx="256.924" ry="18"/>
<text text-anchor="middle" x="819" y="-229.4" font-family="Times New Roman,serif" font-size="14.00">XmlDemux (GTR_MONITOR_TM_STREAM_P3B_ARCTAS)</text>
</a>
</g>
<!-- DataTurbine_2&#45;&gt;XmlDemux_34 -->
<g id="edge66" class="edge"><title>DataTurbine_2&#45;&gt;XmlDemux_34</title>
<path fill="none" stroke="brown" d="M454.939,-583.799C468.805,-508.033 510.466,-302.955 562,-261 568.36,-255.822 575.123,-251.246 582.198,-247.212"/>
<polygon fill="brown" stroke="brown" points="451.429,-583.542 453.097,-594.004 458.317,-584.785 451.429,-583.542"/>
<polygon fill="brown" stroke="brown" points="584.116,-250.157 591.319,-242.388 580.843,-243.969 584.116,-250.157"/>
</g>
<!-- CsvDemux_37 -->
<g id="node68" class="node"><title>CsvDemux_37</title>
<a target="_top" xlink:href="../indsViewer/index.jsp?command=CsvDemux_37" xlink:title="CsvDemux (HASR)">
<ellipse fill="none" stroke="brown" cx="819" cy="-180" rx="86.0356" ry="18"/>
<text text-anchor="middle" x="819" y="-175.4" font-family="Times New Roman,serif" font-size="14.00">CsvDemux (HASR)</text>
</a>
</g>
<!-- DataTurbine_2&#45;&gt;CsvDemux_37 -->
<g id="edge68" class="edge"><title>DataTurbine_2&#45;&gt;CsvDemux_37</title>
<path fill="none" stroke="brown" d="M453.682,-583.755C465.182,-500.175 503.209,-256.805 562,-207 611.467,-165.095 686.976,-161.895 743.366,-167.057"/>
<polygon fill="brown" stroke="brown" points="450.197,-583.416 452.324,-593.795 457.133,-584.355 450.197,-583.416"/>
<polygon fill="brown" stroke="brown" points="743.358,-170.575 753.662,-168.111 744.071,-163.611 743.358,-170.575"/>
</g>
<!-- CsvDemux_40 -->
<g id="node70" class="node"><title>CsvDemux_40</title>
<a target="_top" xlink:href="../indsViewer/index.jsp?command=CsvDemux_40" xlink:title="CsvDemux (WP3D)">
<ellipse fill="none" stroke="brown" cx="819" cy="-126" rx="87.2067" ry="18"/>
<text text-anchor="middle" x="819" y="-121.4" font-family="Times New Roman,serif" font-size="14.00">CsvDemux (WP3D)</text>
</a>
</g>
<!-- DataTurbine_2&#45;&gt;CsvDemux_40 -->
<g id="edge70" class="edge"><title>DataTurbine_2&#45;&gt;CsvDemux_40</title>
<path fill="none" stroke="brown" d="M452.711,-583.715C462.032,-492.822 495.889,-210.758 562,-153 611.242,-109.979 687.718,-107.193 744.456,-112.772"/>
<polygon fill="brown" stroke="brown" points="449.213,-583.524 451.696,-593.824 456.178,-584.224 449.213,-583.524"/>
<polygon fill="brown" stroke="brown" points="744.132,-116.257 754.452,-113.861 744.89,-109.299 744.132,-116.257"/>
</g>
<!-- CsvDemux_43 -->
<g id="node72" class="node"><title>CsvDemux_43</title>
<a target="_top" xlink:href="../indsViewer/index.jsp?command=CsvDemux_43" xlink:title="CsvDemux (CV580_IWG1)">
<ellipse fill="none" stroke="brown" cx="819" cy="-72" rx="116.222" ry="18"/>
<text text-anchor="middle" x="819" y="-67.4" font-family="Times New Roman,serif" font-size="14.00">CsvDemux (CV580_IWG1)</text>
</a>
</g>
<!-- DataTurbine_2&#45;&gt;CsvDemux_43 -->
<g id="edge72" class="edge"><title>DataTurbine_2&#45;&gt;CsvDemux_43</title>
<path fill="none" stroke="brown" d="M451.913,-584.005C459.174,-486.602 488.439,-164.866 562,-99 607.546,-58.2191 677.422,-53.2032 732.822,-57.4319"/>
<polygon fill="brown" stroke="brown" points="448.421,-583.761 451.188,-593.988 455.403,-584.268 448.421,-583.761"/>
<polygon fill="brown" stroke="brown" points="732.722,-60.9365 742.989,-58.3226 733.333,-53.9632 732.722,-60.9365"/>
</g>
<!-- CsvDemux_46 -->
<g id="node74" class="node"><title>CsvDemux_46</title>
<a target="_top" xlink:href="../indsViewer/index.jsp?command=CsvDemux_46" xlink:title="CsvDemux (N255SA)">
<ellipse fill="none" stroke="brown" cx="819" cy="-18" rx="93.9149" ry="18"/>
<text text-anchor="middle" x="819" y="-13.4" font-family="Times New Roman,serif" font-size="14.00">CsvDemux (N255SA)</text>
</a>
</g>
<!-- DataTurbine_2&#45;&gt;CsvDemux_46 -->
<g id="edge74" class="edge"><title>DataTurbine_2&#45;&gt;CsvDemux_46</title>
<path fill="none" stroke="brown" d="M451.294,-583.848C456.694,-479.769 481.059,-118.94 562,-45 609.965,-1.18405 685.896,1.702 742.809,-4.0573"/>
<polygon fill="brown" stroke="brown" points="447.795,-583.747 450.791,-593.909 454.786,-584.097 447.795,-583.747"/>
<polygon fill="brown" stroke="brown" points="742.517,-7.5464 752.845,-5.1812 743.296,-0.589892 742.517,-7.5464"/>
</g>
<!-- HttpMonitor_50 -->
<g id="node6" class="node"><title>HttpMonitor_50</title>
<a target="_top" xlink:href="../indsViewer/index.jsp?command=HttpMonitor_50" xlink:title="HttpMonitor (MSFC.xml)">
<ellipse fill="none" stroke="blue" cx="214" cy="-801" rx="108.002" ry="18"/>
<text text-anchor="middle" x="214" y="-796.4" font-family="Times New Roman,serif" font-size="14.00">HttpMonitor (MSFC.xml)</text>
</a>
</g>
<!-- HttpMonitor_50&#45;&gt;DataTurbine_2 -->
<g id="edge6" class="edge"><title>HttpMonitor_50&#45;&gt;DataTurbine_2</title>
<path fill="none" stroke="blue" d="M302.09,-790.492C314.791,-786.567 327.2,-781.234 338,-774 388.117,-740.433 422.348,-676.198 438.788,-639.503"/>
<polygon fill="blue" stroke="blue" points="442.172,-640.498 442.951,-629.932 435.753,-637.706 442.172,-640.498"/>
</g>
<!-- HttpMonitor_52 -->
<g id="node8" class="node"><title>HttpMonitor_52</title>
<a target="_top" xlink:href="../indsViewer/index.jsp?command=HttpMonitor_52" xlink:title="HttpMonitor (B200.xml)">
<ellipse fill="none" stroke="blue" cx="214" cy="-747" rx="101.965" ry="18"/>
<text text-anchor="middle" x="214" y="-742.4" font-family="Times New Roman,serif" font-size="14.00">HttpMonitor (B200.xml)</text>
</a>
</g>
<!-- HttpMonitor_52&#45;&gt;DataTurbine_2 -->
<g id="edge8" class="edge"><title>HttpMonitor_52&#45;&gt;DataTurbine_2</title>
<path fill="none" stroke="blue" d="M295.35,-736.043C310.064,-732.2 324.884,-727.01 338,-720 375.885,-699.753 409.92,-662.987 430.27,-638.036"/>
<polygon fill="blue" stroke="blue" points="433.127,-640.067 436.632,-630.069 427.657,-635.699 433.127,-640.067"/>
</g>
<!-- HttpMonitor_54 -->
<g id="node10" class="node"><title>HttpMonitor_54</title>
<a target="_top" xlink:href="../indsViewer/index.jsp?command=HttpMonitor_54" xlink:title="HttpMonitor (DC8.xml)">
<ellipse fill="none" stroke="blue" cx="214" cy="-693" rx="99.9522" ry="18"/>
<text text-anchor="middle" x="214" y="-688.4" font-family="Times New Roman,serif" font-size="14.00">HttpMonitor (DC8.xml)</text>
</a>
</g>
<!-- HttpMonitor_54&#45;&gt;DataTurbine_2 -->
<g id="edge10" class="edge"><title>HttpMonitor_54&#45;&gt;DataTurbine_2</title>
<path fill="none" stroke="blue" d="M285.611,-680.404C302.977,-676.532 321.336,-671.742 338,-666 363.245,-657.301 390.242,-644.402 411.405,-633.391"/>
<polygon fill="blue" stroke="blue" points="413.182,-636.411 420.392,-628.647 409.914,-630.22 413.182,-636.411"/>
</g>
<!-- HttpMonitor_56 -->
<g id="node12" class="node"><title>HttpMonitor_56</title>
<a target="_top" xlink:href="../indsViewer/index.jsp?command=HttpMonitor_56" xlink:title="HttpMonitor (DIAL.xml)">
<ellipse fill="none" stroke="blue" cx="214" cy="-639" rx="103.977" ry="18"/>
<text text-anchor="middle" x="214" y="-634.4" font-family="Times New Roman,serif" font-size="14.00">HttpMonitor (DIAL.xml)</text>
</a>
</g>
<!-- HttpMonitor_56&#45;&gt;DataTurbine_2 -->
<g id="edge12" class="edge"><title>HttpMonitor_56&#45;&gt;DataTurbine_2</title>
<path fill="none" stroke="blue" d="M300.872,-629.061C323.895,-626.427 348.62,-623.599 371.188,-621.017"/>
<polygon fill="blue" stroke="blue" points="371.854,-624.463 381.391,-619.849 371.058,-617.509 371.854,-624.463"/>
</g>
<!-- HttpMonitor_58 -->
<g id="node14" class="node"><title>HttpMonitor_58</title>
<a target="_top" xlink:href="../indsViewer/index.jsp?command=HttpMonitor_58" xlink:title="HttpMonitor (CV580.xml)">
<ellipse fill="none" stroke="blue" cx="214" cy="-585" rx="108.844" ry="18"/>
<text text-anchor="middle" x="214" y="-580.4" font-family="Times New Roman,serif" font-size="14.00">HttpMonitor (CV580.xml)</text>
</a>
</g>
<!-- HttpMonitor_58&#45;&gt;DataTurbine_2 -->
<g id="edge14" class="edge"><title>HttpMonitor_58&#45;&gt;DataTurbine_2</title>
<path fill="none" stroke="blue" d="M303.895,-595.285C326.048,-597.819 349.604,-600.514 371.187,-602.983"/>
<polygon fill="blue" stroke="blue" points="370.946,-606.478 381.279,-604.138 371.742,-599.524 370.946,-606.478"/>
</g>
<!-- HttpMonitor_60 -->
<g id="node16" class="node"><title>HttpMonitor_60</title>
<a target="_top" xlink:href="../indsViewer/index.jsp?command=HttpMonitor_60" xlink:title="HttpMonitor (NOAA_P3.xml)">
<ellipse fill="none" stroke="blue" cx="214" cy="-531" rx="124.102" ry="18"/>
<text text-anchor="middle" x="214" y="-526.4" font-family="Times New Roman,serif" font-size="14.00">HttpMonitor (NOAA_P3.xml)</text>
</a>
</g>
<!-- HttpMonitor_60&#45;&gt;DataTurbine_2 -->
<g id="edge16" class="edge"><title>HttpMonitor_60&#45;&gt;DataTurbine_2</title>
<path fill="none" stroke="blue" d="M291.835,-545.014C307.314,-548.619 323.315,-552.94 338,-558 363.245,-566.699 390.242,-579.598 411.405,-590.609"/>
<polygon fill="blue" stroke="blue" points="409.914,-593.78 420.392,-595.353 413.182,-587.589 409.914,-593.78"/>
</g>
<!-- UdpCapture_63port5700 -->
<g id="node18" class="node"><title>UdpCapture_63port5700</title>
<polygon fill="none" stroke="black" points="54,-495 1.42109e-014,-495 0,-459 54,-459 54,-495"/>
<text text-anchor="middle" x="27" y="-472.4" font-family="Times New Roman,serif" font-size="14.00">5700</text>
</g>
<!-- UdpCapture_63 -->
<g id="node19" class="node"><title>UdpCapture_63</title>
<a target="_top" xlink:href="../indsViewer/index.jsp?command=UdpCapture_63" xlink:title="UdpCapture (P3B&#45;5700&#45;cap)">
<ellipse fill="none" stroke="blue" cx="214" cy="-477" rx="120.077" ry="18"/>
<text text-anchor="middle" x="214" y="-472.4" font-family="Times New Roman,serif" font-size="14.00">UdpCapture (P3B&#45;5700&#45;cap)</text>
</a>
</g>
<!-- UdpCapture_63port5700&#45;&gt;UdpCapture_63 -->
<g id="edge18" class="edge"><title>UdpCapture_63port5700&#45;&gt;UdpCapture_63</title>
<path fill="none" stroke="blue" d="M54.1914,-477C62.7225,-477 72.771,-477 83.6068,-477"/>
<polygon fill="blue" stroke="blue" points="83.7585,-480.5 93.7585,-477 83.7584,-473.5 83.7585,-480.5"/>
</g>
<!-- UdpCapture_63&#45;&gt;DataTurbine_2 -->
<g id="edge20" class="edge"><title>UdpCapture_63&#45;&gt;DataTurbine_2</title>
<path fill="none" stroke="blue" d="M300.91,-489.474C313.769,-493.136 326.535,-497.873 338,-504 375.885,-524.247 409.92,-561.013 430.27,-585.964"/>
<polygon fill="blue" stroke="blue" points="427.657,-588.301 436.632,-593.931 433.127,-583.933 427.657,-588.301"/>
</g>
<!-- UdpCapture_64port5750 -->
<g id="node22" class="node"><title>UdpCapture_64port5750</title>
<polygon fill="none" stroke="black" points="54,-441 1.42109e-014,-441 0,-405 54,-405 54,-441"/>
<text text-anchor="middle" x="27" y="-418.4" font-family="Times New Roman,serif" font-size="14.00">5750</text>
</g>
<!-- UdpCapture_64 -->
<g id="node23" class="node"><title>UdpCapture_64</title>
<a target="_top" xlink:href="../indsViewer/index.jsp?command=UdpCapture_64" xlink:title="UdpCapture (P3B&#45;5750&#45;cap)">
<ellipse fill="none" stroke="blue" cx="214" cy="-423" rx="120.077" ry="18"/>
<text text-anchor="middle" x="214" y="-418.4" font-family="Times New Roman,serif" font-size="14.00">UdpCapture (P3B&#45;5750&#45;cap)</text>
</a>
</g>
<!-- UdpCapture_64port5750&#45;&gt;UdpCapture_64 -->
<g id="edge22" class="edge"><title>UdpCapture_64port5750&#45;&gt;UdpCapture_64</title>
<path fill="none" stroke="blue" d="M54.1914,-423C62.7225,-423 72.771,-423 83.6068,-423"/>
<polygon fill="blue" stroke="blue" points="83.7585,-426.5 93.7585,-423 83.7584,-419.5 83.7585,-426.5"/>
</g>
<!-- UdpCapture_64&#45;&gt;DataTurbine_2 -->
<g id="edge24" class="edge"><title>UdpCapture_64&#45;&gt;DataTurbine_2</title>
<path fill="none" stroke="blue" d="M305.633,-434.643C317.091,-438.444 328.206,-443.441 338,-450 388.117,-483.567 422.348,-547.802 438.788,-584.497"/>
<polygon fill="blue" stroke="blue" points="435.753,-586.294 442.951,-594.068 442.172,-583.502 435.753,-586.294"/>
</g>
<!-- UdpCapture_65port5800 -->
<g id="node26" class="node"><title>UdpCapture_65port5800</title>
<polygon fill="none" stroke="black" points="54,-387 1.42109e-014,-387 0,-351 54,-351 54,-387"/>
<text text-anchor="middle" x="27" y="-364.4" font-family="Times New Roman,serif" font-size="14.00">5800</text>
</g>
<!-- UdpCapture_65 -->
<g id="node27" class="node"><title>UdpCapture_65</title>
<a target="_top" xlink:href="../indsViewer/index.jsp?command=UdpCapture_65" xlink:title="UdpCapture (P3B&#45;5800&#45;cap)">
<ellipse fill="none" stroke="blue" cx="214" cy="-369" rx="120.077" ry="18"/>
<text text-anchor="middle" x="214" y="-364.4" font-family="Times New Roman,serif" font-size="14.00">UdpCapture (P3B&#45;5800&#45;cap)</text>
</a>
</g>
<!-- UdpCapture_65port5800&#45;&gt;UdpCapture_65 -->
<g id="edge26" class="edge"><title>UdpCapture_65port5800&#45;&gt;UdpCapture_65</title>
<path fill="none" stroke="blue" d="M54.1914,-369C62.7225,-369 72.771,-369 83.6068,-369"/>
<polygon fill="blue" stroke="blue" points="83.7585,-372.5 93.7585,-369 83.7584,-365.5 83.7585,-372.5"/>
</g>
<!-- UdpCapture_65&#45;&gt;DataTurbine_2 -->
<g id="edge28" class="edge"><title>UdpCapture_65&#45;&gt;DataTurbine_2</title>
<path fill="none" stroke="blue" d="M308.35,-380.187C318.991,-384.09 329.166,-389.236 338,-396 400.831,-444.105 431.681,-537.471 443.71,-584.097"/>
<polygon fill="blue" stroke="blue" points="440.32,-584.97 446.122,-593.835 447.115,-583.286 440.32,-584.97"/>
</g>
</g>
</svg>
