<?xml version="1.0" encoding="UTF-8" standalone="no"?>
<!DOCTYPE svg PUBLIC "-//W3C//DTD SVG 1.0//EN"
 "http://www.w3.org/TR/2001/REC-SVG-20010904/DTD/svg10.dtd">
<!-- Generated by dot version 1.16 (Wed Jun 11 17:45:06 UTC 2008)
     For user: (hubbard) Paul Hubbard   Title: p3third    Pages: 1 -->
<!-- Third pass at matching the PDF -->
<svg width="562pt" height="1022pt"
 viewBox = "-1 -1 561 1021"
 xmlns="http://www.w3.org/2000/svg">
<g id="graph0" class="graph" style="font-family:Times-Roman;font-size:14.00;">
<title>p3third</title>
<g id="node1" class="node"><title>port5700</title>
<polygon style="fill:none;stroke:black;" points="59,4 5,4 5,40 59,40 59,4"/>
<text text-anchor="middle" style="font-family:/System/Library/Fonts/Times.dfont;" x="32" y="27">5700</text>
</g>
<g id="node11" class="node"><title>udpcapture1</title>
<ellipse cx="194" cy="22" rx="49" ry="18" style="fill:none;stroke:black;"/>
<text text-anchor="middle" style="font-family:/System/Library/Fonts/Times.dfont;" x="194" y="27">UDPCapture</text>
</g>
<g id="edge2" class="edge"><title>port5700&#45;&gt;udpcapture1</title>
<path style="fill:none;stroke:black;" d="M59,22C79,22 108,22 134,22"/>
<polygon style="fill:black;stroke:black;" points="134,18 144,22 134,25 134,18"/>
</g>
<g id="node2" class="node"><title>port5750</title>
<polygon style="fill:none;stroke:black;" points="59,406 5,406 5,442 59,442 59,406"/>
<text text-anchor="middle" style="font-family:/System/Library/Fonts/Times.dfont;" x="32" y="429">5750</text>
</g>
<g id="node12" class="node"><title>udpcapture2</title>
<ellipse cx="194" cy="424" rx="49" ry="18" style="fill:none;stroke:black;"/>
<text text-anchor="middle" style="font-family:/System/Library/Fonts/Times.dfont;" x="194" y="429">UDPCapture</text>
</g>
<g id="edge5" class="edge"><title>port5750&#45;&gt;udpcapture2</title>
<path style="fill:none;stroke:black;" d="M59,424C79,424 108,424 134,424"/>
<polygon style="fill:black;stroke:black;" points="134,420 144,424 134,427 134,420"/>
</g>
<g id="node3" class="node"><title>port5800</title>
<polygon style="fill:none;stroke:black;" points="59,460 5,460 5,496 59,496 59,460"/>
<text text-anchor="middle" style="font-family:/System/Library/Fonts/Times.dfont;" x="32" y="483">5800</text>
</g>
<g id="node13" class="node"><title>udpcapture3</title>
<ellipse cx="194" cy="478" rx="49" ry="18" style="fill:none;stroke:black;"/>
<text text-anchor="middle" style="font-family:/System/Library/Fonts/Times.dfont;" x="194" y="483">UDPCapture</text>
</g>
<g id="edge8" class="edge"><title>port5800&#45;&gt;udpcapture3</title>
<path style="fill:none;stroke:black;" d="M59,478C79,478 108,478 134,478"/>
<polygon style="fill:black;stroke:black;" points="134,474 144,478 134,481 134,474"/>
</g>
<g id="node4" class="node"><title>httpmon1</title>
<polygon style="fill:none;stroke:black;" points="268,58 120,58 120,98 268,98 268,58"/>
<text text-anchor="middle" style="font-family:/System/Library/Fonts/Times.dfont;" x="194" y="75">HttpMonitor</text>
<text text-anchor="middle" style="font-family:/System/Library/Fonts/Times.dfont;" x="194" y="91">(HttpMon_MSFC.xml)</text>
</g>
<g id="node22" class="node"><title>RBNB</title>
<ellipse cx="362" cy="451" rx="32" ry="18" style="fill:none;stroke:black;"/>
<text text-anchor="middle" style="font-family:/System/Library/Fonts/Times.dfont;" x="362" y="456">RBNB</text>
</g>
<g id="edge11" class="edge"><title>httpmon1&#45;&gt;RBNB</title>
<path style="fill:none;stroke:black;" d="M268,90C278,94 286,100 293,107 315,131 347,344 358,423"/>
<polygon style="fill:black;stroke:black;" points="361,423 359,433 355,423 361,423"/>
</g>
<g id="node5" class="node"><title>httpmon2</title>
<polygon style="fill:none;stroke:black;" points="264,116 124,116 124,156 264,156 264,116"/>
<text text-anchor="middle" style="font-family:/System/Library/Fonts/Times.dfont;" x="194" y="133">HttpMonitor</text>
<text text-anchor="middle" style="font-family:/System/Library/Fonts/Times.dfont;" x="194" y="149">(HttpMon_B200.xml)</text>
</g>
<g id="edge13" class="edge"><title>httpmon2&#45;&gt;RBNB</title>
<path style="fill:none;stroke:black;" d="M265,147C275,151 285,157 293,165 329,203 351,358 359,423"/>
<polygon style="fill:black;stroke:black;" points="362,423 360,433 356,423 362,423"/>
</g>
<g id="node6" class="node"><title>httpmon3</title>
<polygon style="fill:none;stroke:black;" points="262,174 126,174 126,214 262,214 262,174"/>
<text text-anchor="middle" style="font-family:/System/Library/Fonts/Times.dfont;" x="194" y="191">HttpMonitor</text>
<text text-anchor="middle" style="font-family:/System/Library/Fonts/Times.dfont;" x="194" y="207">(HttpMon_DC8.xml)</text>
</g>
<g id="edge15" class="edge"><title>httpmon3&#45;&gt;RBNB</title>
<path style="fill:none;stroke:black;" d="M262,204C274,208 284,214 293,223 322,252 347,368 357,423"/>
<polygon style="fill:black;stroke:black;" points="360,423 359,433 354,424 360,423"/>
</g>
<g id="node7" class="node"><title>httpmon4</title>
<polygon style="fill:none;stroke:black;" points="265,232 123,232 123,272 265,272 265,232"/>
<text text-anchor="middle" style="font-family:/System/Library/Fonts/Times.dfont;" x="194" y="249">HttpMonitor</text>
<text text-anchor="middle" style="font-family:/System/Library/Fonts/Times.dfont;" x="194" y="265">(HttpMon_DIAL.xml)</text>
</g>
<g id="edge17" class="edge"><title>httpmon4&#45;&gt;RBNB</title>
<path style="fill:none;stroke:black;" d="M266,265C276,269 285,274 293,281 335,319 352,385 358,423"/>
<polygon style="fill:black;stroke:black;" points="361,423 360,433 355,424 361,423"/>
</g>
<g id="node8" class="node"><title>httpmon5</title>
<polygon style="fill:none;stroke:black;" points="268,290 120,290 120,330 268,330 268,290"/>
<text text-anchor="middle" style="font-family:/System/Library/Fonts/Times.dfont;" x="194" y="307">HttpMonitor</text>
<text text-anchor="middle" style="font-family:/System/Library/Fonts/Times.dfont;" x="194" y="323">(HttpMon_C4580.xml)</text>
</g>
<g id="edge19" class="edge"><title>httpmon5&#45;&gt;RBNB</title>
<path style="fill:none;stroke:black;" d="M268,325C277,329 286,333 293,339 322,361 341,398 352,423"/>
<polygon style="fill:black;stroke:black;" points="356,422 356,433 349,425 356,422"/>
</g>
<g id="node9" class="node"><title>httpmon6</title>
<polygon style="fill:none;stroke:black;" points="280,348 108,348 108,388 280,388 280,348"/>
<text text-anchor="middle" style="font-family:/System/Library/Fonts/Times.dfont;" x="194" y="365">HttpMonitor</text>
<text text-anchor="middle" style="font-family:/System/Library/Fonts/Times.dfont;" x="194" y="381">(HttpMon_NOAA_P3.xml)</text>
</g>
<g id="edge21" class="edge"><title>httpmon6&#45;&gt;RBNB</title>
<path style="fill:none;stroke:black;" d="M272,388C279,391 286,394 293,397 309,405 326,417 338,428"/>
<polygon style="fill:black;stroke:black;" points="341,426 346,435 336,431 341,426"/>
</g>
<g id="node10" class="node"><title>port4000</title>
<polygon style="fill:none;stroke:black;" points="389,190 335,190 335,226 389,226 389,190"/>
<text text-anchor="middle" style="font-family:/System/Library/Fonts/Times.dfont;" x="362" y="213">4000</text>
</g>
<g id="node32" class="node"><title>TimeDrive</title>
<ellipse cx="493" cy="208" rx="44" ry="18" style="fill:none;stroke:black;"/>
<text text-anchor="middle" style="font-family:/System/Library/Fonts/Times.dfont;" x="493" y="213">TimeDrive</text>
</g>
<g id="edge23" class="edge"><title>port4000&#45;&gt;TimeDrive</title>
<path style="fill:none;stroke:black;" d="M389,208C403,208 422,208 439,208"/>
<polygon style="fill:black;stroke:black;" points="439,204 449,208 439,211 439,204"/>
</g>
<g id="edge3" class="edge"><title>udpcapture1&#45;&gt;RBNB</title>
<path style="fill:none;stroke:black;" d="M243,25C261,28 281,35 293,49 300,57 343,332 357,423"/>
<polygon style="fill:black;stroke:black;" points="360,423 359,433 354,424 360,423"/>
</g>
<g id="edge6" class="edge"><title>udpcapture2&#45;&gt;RBNB</title>
<path style="fill:none;stroke:black;" d="M239,431C264,435 296,441 321,444"/>
<polygon style="fill:black;stroke:black;" points="322,441 331,446 321,447 322,441"/>
</g>
<g id="edge9" class="edge"><title>udpcapture3&#45;&gt;RBNB</title>
<path style="fill:none;stroke:black;" d="M239,471C264,467 296,461 321,458"/>
<polygon style="fill:black;stroke:black;" points="321,455 331,456 322,461 321,455"/>
</g>
<g id="node14" class="node"><title>xmldemux1</title>
<ellipse cx="194" cy="542" rx="98" ry="28" style="fill:none;stroke:black;"/>
<text text-anchor="middle" style="font-family:/System/Library/Fonts/Times.dfont;" x="194" y="539">XMLDemux</text>
<text text-anchor="middle" style="font-family:/System/Library/Fonts/Times.dfont;" x="194" y="555">(IWG1_GTR_out_DC8.xml)</text>
</g>
<g id="edge41" class="edge"><title>xmldemux1&#45;&gt;RBNB</title>
<path style="fill:none;stroke:black;" d="M268,517C277,513 285,509 293,505 308,496 325,484 337,474"/>
<polygon style="fill:black;stroke:black;" points="270,520 259,521 267,514 270,520"/>
<polygon style="fill:black;stroke:black;" points="335,471 345,467 340,476 335,471"/>
</g>
<g id="node15" class="node"><title>xmldemux2</title>
<ellipse cx="194" cy="616" rx="98" ry="28" style="fill:none;stroke:black;"/>
<text text-anchor="middle" style="font-family:/System/Library/Fonts/Times.dfont;" x="194" y="613">XMLDemux</text>
<text text-anchor="middle" style="font-family:/System/Library/Fonts/Times.dfont;" x="194" y="629">(IWG1_GTR_out_DC8.xml)</text>
</g>
<g id="edge43" class="edge"><title>xmldemux2&#45;&gt;RBNB</title>
<path style="fill:none;stroke:black;" d="M274,592C281,588 287,584 293,579 324,551 343,507 354,479"/>
<polygon style="fill:black;stroke:black;" points="275,595 265,597 272,589 275,595"/>
<polygon style="fill:black;stroke:black;" points="351,478 357,469 357,480 351,478"/>
</g>
<g id="node16" class="node"><title>xmldemux3</title>
<ellipse cx="194" cy="690" rx="98" ry="28" style="fill:none;stroke:black;"/>
<text text-anchor="middle" style="font-family:/System/Library/Fonts/Times.dfont;" x="194" y="687">XMLDemux</text>
<text text-anchor="middle" style="font-family:/System/Library/Fonts/Times.dfont;" x="194" y="703">(IWG1_GTR_out_DC8.xml)</text>
</g>
<g id="edge45" class="edge"><title>xmldemux3&#45;&gt;RBNB</title>
<path style="fill:none;stroke:black;" d="M277,666C283,662 288,658 293,653 341,604 356,522 360,479"/>
<polygon style="fill:black;stroke:black;" points="278,669 268,671 275,663 278,669"/>
<polygon style="fill:black;stroke:black;" points="357,479 361,469 363,479 357,479"/>
</g>
<g id="node17" class="node"><title>csndemux1</title>
<ellipse cx="194" cy="764" rx="52" ry="28" style="fill:none;stroke:black;"/>
<text text-anchor="middle" style="font-family:/System/Library/Fonts/Times.dfont;" x="194" y="761">CSNDemux</text>
<text text-anchor="middle" style="font-family:/System/Library/Fonts/Times.dfont;" x="194" y="777"> (B200.xml)</text>
</g>
<g id="edge47" class="edge"><title>csndemux1&#45;&gt;RBNB</title>
<path style="fill:none;stroke:black;" d="M254,752C268,747 282,738 293,727 327,689 350,541 359,479"/>
<polygon style="fill:black;stroke:black;" points="255,755 244,755 253,749 255,755"/>
<polygon style="fill:black;stroke:black;" points="356,479 360,469 362,479 356,479"/>
</g>
<g id="node18" class="node"><title>csndemux2</title>
<ellipse cx="194" cy="838" rx="68" ry="28" style="fill:none;stroke:black;"/>
<text text-anchor="middle" style="font-family:/System/Library/Fonts/Times.dfont;" x="194" y="835">CSNDemux</text>
<text text-anchor="middle" style="font-family:/System/Library/Fonts/Times.dfont;" x="194" y="851"> (NOAA_P3.xml)</text>
</g>
<g id="edge49" class="edge"><title>csndemux2&#45;&gt;RBNB</title>
<path style="fill:none;stroke:black;" d="M264,822C275,816 285,810 293,801 335,751 354,554 360,479"/>
<polygon style="fill:black;stroke:black;" points="266,825 255,826 263,819 266,825"/>
<polygon style="fill:black;stroke:black;" points="357,479 361,469 363,479 357,479"/>
</g>
<g id="node19" class="node"><title>csndemux3</title>
<ellipse cx="194" cy="912" rx="55" ry="28" style="fill:none;stroke:black;"/>
<text text-anchor="middle" style="font-family:/System/Library/Fonts/Times.dfont;" x="194" y="909">CSNDemux</text>
<text text-anchor="middle" style="font-family:/System/Library/Fonts/Times.dfont;" x="194" y="925"> (C4580.xml)</text>
</g>
<g id="edge51" class="edge"><title>csndemux3&#45;&gt;RBNB</title>
<path style="fill:none;stroke:black;" d="M257,900C271,894 284,886 293,875 344,814 358,564 361,479"/>
<polygon style="fill:black;stroke:black;" points="258,903 247,903 256,897 258,903"/>
<polygon style="fill:black;stroke:black;" points="358,479 361,469 365,479 358,479"/>
</g>
<g id="node20" class="node"><title>csndemux4</title>
<ellipse cx="194" cy="986" rx="69" ry="28" style="fill:none;stroke:black;"/>
<text text-anchor="middle" style="font-family:/System/Library/Fonts/Times.dfont;" x="194" y="983">CSNDemux</text>
<text text-anchor="middle" style="font-family:/System/Library/Fonts/Times.dfont;" x="194" y="999"> (Twin_Otter.xml)</text>
</g>
<g id="edge53" class="edge"><title>csndemux4&#45;&gt;RBNB</title>
<path style="fill:none;stroke:black;" d="M266,970C277,964 286,958 293,949 323,911 352,579 360,479"/>
<polygon style="fill:black;stroke:black;" points="268,973 257,974 265,967 268,973"/>
<polygon style="fill:black;stroke:black;" points="357,479 361,469 363,479 357,479"/>
</g>
<g id="edge33" class="edge"><title>RBNB&#45;&gt;TimeDrive</title>
<path style="fill:none;stroke:black;" d="M364,423C368,378 383,290 431,235 436,230 442,226 448,222"/>
<polygon style="fill:black;stroke:black;" points="367,423 363,433 361,423 367,423"/>
<polygon style="fill:black;stroke:black;" points="446,219 457,218 449,225 446,219"/>
</g>
<g id="node34" class="node"><title>DeadReckoning</title>
<ellipse cx="493" cy="262" rx="58" ry="18" style="fill:none;stroke:black;"/>
<text text-anchor="middle" style="font-family:/System/Library/Fonts/Times.dfont;" x="493" y="267">DeadReckoning</text>
</g>
<g id="edge25" class="edge"><title>RBNB&#45;&gt;DeadReckoning</title>
<path style="fill:none;stroke:black;" d="M367,423C376,387 394,327 431,289 435,285 439,282 443,280"/>
<polygon style="fill:black;stroke:black;" points="370,424 365,433 364,423 370,424"/>
<polygon style="fill:black;stroke:black;" points="442,277 452,275 445,283 442,277"/>
</g>
<g id="node36" class="node"><title>Tomcat</title>
<ellipse cx="493" cy="316" rx="34" ry="18" style="fill:none;stroke:black;"/>
<text text-anchor="middle" style="font-family:/System/Library/Fonts/Times.dfont;" x="493" y="321">Tomcat</text>
</g>
<g id="edge27" class="edge"><title>RBNB&#45;&gt;Tomcat</title>
<path style="fill:none;stroke:black;" d="M373,424C385,400 405,365 431,343 437,337 445,333 454,329"/>
<polygon style="fill:black;stroke:black;" points="376,425 369,433 370,422 376,425"/>
<polygon style="fill:black;stroke:black;" points="452,326 463,325 455,332 452,326"/>
</g>
<g id="node38" class="node"><title>PNG</title>
<ellipse cx="493" cy="370" rx="27" ry="18" style="fill:none;stroke:black;"/>
<text text-anchor="middle" style="font-family:/System/Library/Fonts/Times.dfont;" x="493" y="375">PNG</text>
</g>
<g id="edge29" class="edge"><title>RBNB&#45;&gt;PNG</title>
<path style="fill:none;stroke:black;" d="M387,429C400,418 415,406 431,397 440,392 450,387 460,383"/>
<polygon style="fill:black;stroke:black;" points="389,432 379,435 385,426 389,432"/>
<polygon style="fill:black;stroke:black;" points="458,380 469,379 461,386 458,380"/>
</g>
<g id="node40" class="node"><title>ToString</title>
<ellipse cx="493" cy="424" rx="38" ry="18" style="fill:none;stroke:black;"/>
<text text-anchor="middle" style="font-family:/System/Library/Fonts/Times.dfont;" x="493" y="429">ToString</text>
</g>
<g id="edge31" class="edge"><title>RBNB&#45;&gt;ToString</title>
<path style="fill:none;stroke:black;" d="M403,443C417,440 433,436 448,433"/>
<polygon style="fill:black;stroke:black;" points="403,446 393,445 402,440 403,446"/>
<polygon style="fill:black;stroke:black;" points="448,430 458,431 449,436 448,430"/>
</g>
<g id="node43" class="node"><title>TrackKML_DC8</title>
<ellipse cx="493" cy="478" rx="62" ry="18" style="fill:none;stroke:black;"/>
<text text-anchor="middle" style="font-family:/System/Library/Fonts/Times.dfont;" x="493" y="483">TrackKML_DC8</text>
</g>
<g id="edge35" class="edge"><title>RBNB&#45;&gt;TrackKML_DC8</title>
<path style="fill:none;stroke:black;" d="M403,459C413,461 423,463 433,465"/>
<polygon style="fill:black;stroke:black;" points="402,462 393,457 403,456 402,462"/>
<polygon style="fill:black;stroke:black;" points="434,462 443,467 433,468 434,462"/>
</g>
<g id="node45" class="node"><title>TrackKML_P3B</title>
<ellipse cx="493" cy="532" rx="60" ry="18" style="fill:none;stroke:black;"/>
<text text-anchor="middle" style="font-family:/System/Library/Fonts/Times.dfont;" x="493" y="537">TrackKML_P3B</text>
</g>
<g id="edge37" class="edge"><title>RBNB&#45;&gt;TrackKML_P3B</title>
<path style="fill:none;stroke:black;" d="M387,473C400,484 415,496 431,505 436,508 441,511 447,513"/>
<polygon style="fill:black;stroke:black;" points="385,476 379,467 389,470 385,476"/>
<polygon style="fill:black;stroke:black;" points="449,510 456,518 446,516 449,510"/>
</g>
<g id="node47" class="node"><title>TrackData_DC8</title>
<ellipse cx="493" cy="586" rx="59" ry="18" style="fill:none;stroke:black;"/>
<text text-anchor="middle" style="font-family:/System/Library/Fonts/Times.dfont;" x="493" y="591">TrackData_DC8</text>
</g>
<g id="edge39" class="edge"><title>RBNB&#45;&gt;TrackData_DC8</title>
<path style="fill:none;stroke:black;" d="M373,478C385,502 405,537 431,559 435,562 439,565 444,568"/>
<polygon style="fill:black;stroke:black;" points="370,480 369,469 376,477 370,480"/>
<polygon style="fill:black;stroke:black;" points="445,565 453,572 442,571 445,565"/>
</g>
<g id="node56" class="node"><title>RDV1</title>
<ellipse cx="493" cy="640" rx="31" ry="18" style="fill:none;stroke:black;"/>
<text text-anchor="middle" style="font-family:/System/Library/Fonts/Times.dfont;" x="493" y="645">RDV1</text>
</g>
<g id="edge55" class="edge"><title>RBNB&#45;&gt;RDV1</title>
<path style="fill:none;stroke:black;" d="M365,469C372,502 390,571 431,613 438,620 446,624 455,628"/>
<polygon style="fill:black;stroke:black;" points="456,625 464,632 453,631 456,625"/>
</g>
<g id="node58" class="node"><title>RDV2</title>
<ellipse cx="493" cy="694" rx="32" ry="18" style="fill:none;stroke:black;"/>
<text text-anchor="middle" style="font-family:/System/Library/Fonts/Times.dfont;" x="493" y="699">RDV2</text>
</g>
<g id="edge57" class="edge"><title>RBNB&#45;&gt;RDV2</title>
<path style="fill:none;stroke:black;" d="M363,469C366,510 379,608 431,667 438,674 446,679 454,683"/>
<polygon style="fill:black;stroke:black;" points="456,680 464,687 453,687 456,680"/>
</g>
</g>
</svg>
