<?xml version="1.0" encoding="UTF-8" standalone="no"?>
<!DOCTYPE svg PUBLIC "-//W3C//DTD SVG 1.0//EN"
 "http://www.w3.org/TR/2001/REC-SVG-20010904/DTD/svg10.dtd" [
 <!ATTLIST svg xmlns:xlink CDATA #FIXED "http://www.w3.org/1999/xlink">
]>
<!-- Generated by dot version 1.16 (Wed Jun 11 17:45:06 UTC 2008)
     For user: (hubbard) Paul Hubbard   Title: p4    Pages: 1 -->
<svg width="562pt" height="318pt"
 viewBox = "-1 -1 561 317"
 xmlns="http://www.w3.org/2000/svg" xmlns:xlink="http://www.w3.org/1999/xlink">
<g id="graph0" class="graph" style="font-family:Times-Roman;font-size:14.00;">
<title>p4</title>
<g id="node1" class="node"><title>port5700</title>
<a xlink:href="https://indscore.dfrc.nasa.gov/RBNB/INDS6/DC8&#45;817&#45;TC4_IWG1" xlink:title="5700">
<polygon style="fill:none;stroke:black;" points="59,50 5,50 5,86 59,86 59,50"/>
<text text-anchor="middle" style="font-family:/System/Library/Fonts/Times.dfont;" x="32" y="73">5700</text>
</a>
</g>
<g id="node4" class="node"><title>udpcapture1</title>
<ellipse cx="194" cy="68" rx="49" ry="18" style="fill:none;stroke:black;"/>
<text text-anchor="middle" style="font-family:/System/Library/Fonts/Times.dfont;" x="194" y="73">UDPCapture</text>
</g>
<g id="edge2" class="edge"><title>port5700&#45;&gt;udpcapture1</title>
<path style="fill:none;stroke:black;" d="M59,68C79,68 108,68 134,68"/>
<polygon style="fill:black;stroke:black;" points="134,64 144,68 134,71 134,64"/>
</g>
<g id="node2" class="node"><title>httpmon1</title>
<polygon style="fill:none;stroke:black;" points="268,104 120,104 120,144 268,144 268,104"/>
<text text-anchor="middle" style="font-family:/System/Library/Fonts/Times.dfont;" x="194" y="121">HttpMonitor</text>
<text text-anchor="middle" style="font-family:/System/Library/Fonts/Times.dfont;" x="194" y="137">(HttpMon_MSFC.xml)</text>
</g>
<g id="node7" class="node"><title>RBNB</title>
<ellipse cx="362" cy="157" rx="32" ry="18" style="fill:none;stroke:black;"/>
<text text-anchor="middle" style="font-family:/System/Library/Fonts/Times.dfont;" x="362" y="162">RBNB</text>
</g>
<g id="edge5" class="edge"><title>httpmon1&#45;&gt;RBNB</title>
<path style="fill:none;stroke:black;" d="M268,139C286,142 305,146 321,149"/>
<polygon style="fill:black;stroke:black;" points="322,146 331,151 321,152 322,146"/>
</g>
<g id="node3" class="node"><title>port4000</title>
<polygon style="fill:none;stroke:black;" points="389,4 335,4 335,40 389,40 389,4"/>
<text text-anchor="middle" style="font-family:/System/Library/Fonts/Times.dfont;" x="362" y="27">4000</text>
</g>
<g id="node10" class="node"><title>TimeDrive</title>
<ellipse cx="493" cy="22" rx="44" ry="18" style="fill:none;stroke:black;"/>
<text text-anchor="middle" style="font-family:/System/Library/Fonts/Times.dfont;" x="493" y="27">TimeDrive</text>
</g>
<g id="edge7" class="edge"><title>port4000&#45;&gt;TimeDrive</title>
<path style="fill:none;stroke:black;" d="M389,22C403,22 422,22 439,22"/>
<polygon style="fill:black;stroke:black;" points="439,18 449,22 439,25 439,18"/>
</g>
<g id="edge3" class="edge"><title>udpcapture1&#45;&gt;RBNB</title>
<path style="fill:none;stroke:black;" d="M239,76C257,80 276,86 293,95 311,104 328,120 341,133"/>
<polygon style="fill:black;stroke:black;" points="343,130 348,140 338,135 343,130"/>
</g>
<g id="node5" class="node"><title>xmldemux1</title>
<ellipse cx="194" cy="190" rx="98" ry="28" style="fill:none;stroke:black;"/>
<text text-anchor="middle" style="font-family:/System/Library/Fonts/Times.dfont;" x="194" y="187">XMLDemux</text>
<text text-anchor="middle" style="font-family:/System/Library/Fonts/Times.dfont;" x="194" y="203">(IWG1_GTR_out_DC8.xml)</text>
</g>
<g id="edge16" class="edge"><title>xmldemux1&#45;&gt;RBNB</title>
<path style="fill:none;stroke:black;" d="M285,172C297,170 310,167 321,165"/>
<polygon style="fill:black;stroke:black;" points="285,175 275,174 284,169 285,175"/>
<polygon style="fill:black;stroke:black;" points="321,162 331,163 322,168 321,162"/>
</g>
<g id="edge10" class="edge"><title>RBNB&#45;&gt;TimeDrive</title>
<path style="fill:none;stroke:black;" d="M373,130C385,106 405,71 431,49 436,44 443,40 449,37"/>
<polygon style="fill:black;stroke:black;" points="376,131 369,139 370,128 376,131"/>
<polygon style="fill:black;stroke:black;" points="447,34 458,33 450,40 447,34"/>
</g>
<g id="node13" class="node"><title>Tomcat</title>
<ellipse cx="493" cy="76" rx="34" ry="18" style="fill:none;stroke:black;"/>
<text text-anchor="middle" style="font-family:/System/Library/Fonts/Times.dfont;" x="493" y="81">Tomcat</text>
</g>
<g id="edge11" class="edge"><title>RBNB&#45;&gt;Tomcat</title>
<path style="fill:none;stroke:black;" d="M387,135C400,124 415,112 431,103 439,99 448,94 456,90"/>
<polygon style="fill:black;stroke:black;" points="389,138 379,141 385,132 389,138"/>
<polygon style="fill:black;stroke:black;" points="454,87 465,86 457,93 454,87"/>
</g>
<g id="node14" class="node"><title>PNG</title>
<ellipse cx="493" cy="130" rx="27" ry="18" style="fill:none;stroke:black;"/>
<text text-anchor="middle" style="font-family:/System/Library/Fonts/Times.dfont;" x="493" y="135">PNG</text>
</g>
<g id="edge12" class="edge"><title>RBNB&#45;&gt;PNG</title>
<path style="fill:none;stroke:black;" d="M403,149C420,145 440,141 457,137"/>
<polygon style="fill:black;stroke:black;" points="403,152 393,151 402,146 403,152"/>
<polygon style="fill:black;stroke:black;" points="457,134 467,135 458,140 457,134"/>
</g>
<g id="node15" class="node"><title>TrackKML_DC8</title>
<ellipse cx="493" cy="184" rx="62" ry="18" style="fill:none;stroke:black;"/>
<text text-anchor="middle" style="font-family:/System/Library/Fonts/Times.dfont;" x="493" y="189">TrackKML_DC8</text>
</g>
<g id="edge13" class="edge"><title>RBNB&#45;&gt;TrackKML_DC8</title>
<path style="fill:none;stroke:black;" d="M403,165C413,167 423,170 433,171"/>
<polygon style="fill:black;stroke:black;" points="402,168 393,163 403,162 402,168"/>
<polygon style="fill:black;stroke:black;" points="434,168 443,173 433,174 434,168"/>
</g>
<g id="node16" class="node"><title>TrackData_DC8</title>
<ellipse cx="493" cy="238" rx="59" ry="18" style="fill:none;stroke:black;"/>
<text text-anchor="middle" style="font-family:/System/Library/Fonts/Times.dfont;" x="493" y="243">TrackData_DC8</text>
</g>
<g id="edge14" class="edge"><title>RBNB&#45;&gt;TrackData_DC8</title>
<path style="fill:none;stroke:black;" d="M387,179C400,190 415,202 431,211 436,214 442,217 448,220"/>
<polygon style="fill:black;stroke:black;" points="385,182 379,173 389,176 385,182"/>
<polygon style="fill:black;stroke:black;" points="449,217 457,224 446,223 449,217"/>
</g>
<g id="node21" class="node"><title>RDV1</title>
<ellipse cx="493" cy="292" rx="31" ry="18" style="fill:none;stroke:black;"/>
<text text-anchor="middle" style="font-family:/System/Library/Fonts/Times.dfont;" x="493" y="297">RDV1</text>
</g>
<g id="edge20" class="edge"><title>RBNB&#45;&gt;RDV1</title>
<path style="fill:none;stroke:black;" d="M369,175C380,198 401,240 431,265 438,271 447,276 456,280"/>
<polygon style="fill:black;stroke:black;" points="457,277 465,284 454,283 457,277"/>
</g>
<g id="node18" class="node"><title>csndemux1</title>
<ellipse cx="194" cy="254" rx="45" ry="18" style="fill:none;stroke:black;"/>
<text text-anchor="middle" style="font-family:/System/Library/Fonts/Times.dfont;" x="194" y="259">csndemux1</text>
</g>
<g id="edge18" class="edge"><title>csndemux1&#45;&gt;RBNB</title>
<path style="fill:none;stroke:black;" d="M247,245C262,241 279,235 293,227 312,215 330,196 343,182"/>
<polygon style="fill:black;stroke:black;" points="248,248 237,248 246,242 248,248"/>
<polygon style="fill:black;stroke:black;" points="341,179 350,174 346,184 341,179"/>
</g>
</g>
</svg>
